<svg width="473" height="8" viewBox="0 0 473 8" fill="none" xmlns="http://www.w3.org/2000/svg">
<rect width="7.96552" height="472.308" transform="translate(0 7.96552) rotate(-90)" fill="#F27121"/>
<path d="M2.06894 3.92093C2.50445 3.51028 3.03452 3.2167 3.61077 3.06698C4.18702 2.91725 4.7911 2.91616 5.36788 3.06379C6.22336 3.25485 7.05775 3.53243 7.85852 3.89236C8.3523 4.10779 8.85747 4.29539 9.37171 4.45427C9.65125 4.54968 9.94198 4.60731 10.2364 4.62569C11.1763 4.93045 11.5804 4.39712 11.5898 3.03522C11.5236 3.03234 11.46 3.00803 11.4084 2.96588C11.3568 2.92372 11.3199 2.86593 11.3031 2.80097C11.2863 2.736 11.2904 2.66729 11.315 2.6049C11.3395 2.54251 11.3831 2.48972 11.4394 2.45427C13.3192 1.44475 14.1462 4.10188 12.8022 5.3114C12.3539 5.62992 11.8392 5.83943 11.2981 5.92367C10.7569 6.00791 10.2038 5.96459 9.68187 5.79711C7.11603 5.19711 5.11411 3.05427 2.3133 4.27332C2.11593 4.35903 1.88097 4.12092 2.06894 3.9495L2.06894 3.92093Z" fill="#F8CA95"/>
<path d="M29.3253 3.92093C28.8898 3.51028 28.3597 3.2167 27.7834 3.06698C27.2072 2.91725 26.6031 2.91616 26.0263 3.06379C25.1735 3.25345 24.3421 3.53108 23.5451 3.89236C23.0481 4.10781 22.5398 4.29541 22.0225 4.45427C21.743 4.54968 21.4522 4.60731 21.1578 4.62569C20.265 4.93045 19.8138 4.39712 19.8044 3.03522C19.8706 3.03234 19.9342 3.00803 19.9858 2.96588C20.0374 2.92372 20.0743 2.86593 20.0911 2.80097C20.1079 2.736 20.1038 2.66729 20.0792 2.6049C20.0547 2.54251 20.0111 2.48972 19.9548 2.45427C18.1221 1.44476 17.248 4.10188 18.592 5.3114C19.0403 5.62992 19.555 5.83943 20.0962 5.92367C20.6373 6.00791 21.1904 5.96459 21.7123 5.79711C24.2782 5.19711 26.2801 3.05427 29.0809 4.27331C29.2783 4.35903 29.5133 4.12092 29.3253 3.9495L29.3253 3.92093Z" fill="#F8CA95"/>
<path d="M13.8645 2.86377C14.0502 3.10681 14.2839 3.30793 14.5506 3.45426C14.7198 3.57806 14.8984 3.71139 15.077 3.81615C14.721 4.11377 14.3821 4.43175 14.0619 4.76852C13.9021 4.93995 14.0619 5.27329 14.3063 5.18757C14.7053 5.05229 15.0847 4.8633 15.4341 4.62567C15.4341 4.9971 15.5375 5.38757 15.5845 5.73995C15.596 5.80086 15.6281 5.8558 15.6753 5.89531C15.7225 5.93483 15.7818 5.95645 15.843 5.95645C15.9042 5.95645 15.9634 5.93483 16.0106 5.89531C16.0578 5.8558 16.0899 5.80086 16.1014 5.73995C16.1014 5.36853 16.1954 4.96854 16.2048 4.58759C16.4391 4.79574 16.7059 4.96308 16.9943 5.08281C17.0634 5.1029 17.1372 5.09878 17.2037 5.07113C17.2702 5.04348 17.3256 4.99392 17.3608 4.93044C17.3935 4.86834 17.4065 4.79754 17.3981 4.72769C17.3897 4.65783 17.3603 4.59229 17.3139 4.53996C17.0977 4.2733 16.8909 4.00663 16.7029 3.73044C16.9734 3.3379 17.1797 2.90377 17.3139 2.44474C17.4548 2.02569 16.8815 1.84474 16.6559 2.15902C16.4304 2.47331 16.092 2.83521 15.8195 3.18759L15.8195 3.25425C15.5679 3.04579 15.2857 2.87867 14.983 2.75901C14.719 2.6005 14.4237 2.50296 14.1183 2.47331C14.0703 2.46582 14.0211 2.47245 13.9767 2.49243C13.9323 2.51242 13.8945 2.54491 13.8678 2.58604C13.841 2.62716 13.8265 2.67519 13.8259 2.72442C13.8254 2.77366 13.8388 2.82202 13.8645 2.86377Z" fill="#F8CA95"/>
<path d="M31.4632 3.92093C31.8987 3.51028 32.4288 3.2167 33.0051 3.06698C33.5813 2.91725 34.1854 2.91616 34.7622 3.06379C35.6176 3.25485 36.452 3.53243 37.2528 3.89236C37.7466 4.10779 38.2518 4.29539 38.766 4.45427C39.0455 4.54968 39.3363 4.60731 39.6307 4.62569C40.5705 4.93045 40.9747 4.39712 40.9841 3.03522C40.9179 3.03234 40.8543 3.00803 40.8027 2.96588C40.7511 2.92372 40.7142 2.86593 40.6974 2.80097C40.6806 2.736 40.6847 2.66729 40.7093 2.6049C40.7338 2.54251 40.7774 2.48972 40.8337 2.45427C42.7135 1.44475 43.5405 4.10188 42.1965 5.3114C41.7482 5.62992 41.2335 5.83943 40.6923 5.92367C40.1512 6.00791 39.5981 5.96459 39.0762 5.79711C36.5103 5.19711 34.5084 3.05427 31.7076 4.27332C31.5102 4.35903 31.2753 4.12092 31.4632 3.9495L31.4632 3.92093Z" fill="#F8CA95"/>
<path d="M58.7196 3.92093C58.2841 3.51028 57.754 3.2167 57.1777 3.06698C56.6015 2.91725 55.9974 2.91616 55.4206 3.06379C54.5678 3.25345 53.7364 3.53108 52.9394 3.89236C52.4424 4.10781 51.9341 4.29541 51.4168 4.45427C51.1373 4.54968 50.8465 4.60731 50.5521 4.62569C49.6592 4.93045 49.2081 4.39712 49.1987 3.03522C49.2649 3.03234 49.3285 3.00803 49.3801 2.96588C49.4317 2.92372 49.4686 2.86593 49.4854 2.80097C49.5022 2.736 49.4981 2.66729 49.4735 2.6049C49.449 2.54251 49.4054 2.48972 49.3491 2.45427C47.5163 1.44476 46.6423 4.10188 47.9863 5.3114C48.4346 5.62992 48.9493 5.83943 49.4904 5.92367C50.0316 6.00791 50.5847 5.96459 51.1066 5.79711C53.6725 5.19711 55.6744 3.05427 58.4752 4.27331C58.6726 4.35903 58.9075 4.12092 58.7196 3.9495L58.7196 3.92093Z" fill="#F8CA95"/>
<path d="M43.2588 2.86377C43.4445 3.10681 43.6782 3.30793 43.9449 3.45426C44.1141 3.57806 44.2927 3.71139 44.4712 3.81615C44.1153 4.11377 43.7764 4.43175 43.4562 4.76852C43.2964 4.93995 43.4562 5.27329 43.7005 5.18757C44.0996 5.05229 44.479 4.8633 44.8284 4.62567C44.8284 4.9971 44.9318 5.38757 44.9788 5.73995C44.9903 5.80086 45.0224 5.8558 45.0696 5.89531C45.1167 5.93483 45.176 5.95645 45.2372 5.95645C45.2984 5.95645 45.3577 5.93483 45.4049 5.89531C45.4521 5.8558 45.4842 5.80086 45.4957 5.73995C45.4957 5.36853 45.5897 4.96854 45.5991 4.58759C45.8334 4.79574 46.1002 4.96308 46.3886 5.08281C46.4577 5.1029 46.5315 5.09878 46.598 5.07113C46.6645 5.04348 46.7198 4.99392 46.7551 4.93044C46.7878 4.86834 46.8008 4.79754 46.7924 4.72769C46.784 4.65783 46.7546 4.59229 46.7081 4.53996C46.492 4.2733 46.2852 4.00663 46.0972 3.73044C46.3677 3.3379 46.574 2.90377 46.7081 2.44474C46.8491 2.02569 46.2758 1.84474 46.0502 2.15902C45.8247 2.47331 45.4863 2.83521 45.2137 3.18759L45.2137 3.25425C44.9622 3.04579 44.68 2.87867 44.3773 2.75901C44.1133 2.6005 43.818 2.50296 43.5126 2.47331C43.4646 2.46582 43.4154 2.47245 43.371 2.49243C43.3266 2.51242 43.2888 2.54491 43.2621 2.58604C43.2353 2.62716 43.2208 2.67519 43.2202 2.72442C43.2197 2.77366 43.233 2.82202 43.2588 2.86377Z" fill="#F8CA95"/>
<path d="M60.8573 3.92093C61.2928 3.51028 61.8229 3.2167 62.3991 3.06698C62.9754 2.91725 63.5794 2.91616 64.1562 3.06379C65.0117 3.25485 65.8461 3.53243 66.6469 3.89236C67.1406 4.10779 67.6458 4.29539 68.16 4.45427C68.4396 4.54968 68.7303 4.60731 69.0247 4.62569C69.9646 4.93045 70.3687 4.39712 70.3781 3.03522C70.3119 3.03234 70.2483 3.00803 70.1968 2.96588C70.1452 2.92372 70.1082 2.86593 70.0914 2.80097C70.0746 2.736 70.0788 2.66729 70.1033 2.6049C70.1278 2.54251 70.1715 2.48972 70.2278 2.45427C72.1075 1.44475 72.9346 4.10188 71.5906 5.3114C71.1423 5.62992 70.6275 5.83943 70.0864 5.92367C69.5452 6.00791 68.9922 5.96459 68.4702 5.79711C65.9044 5.19711 63.9024 3.05427 61.1016 4.27332C60.9043 4.35903 60.6693 4.12092 60.8573 3.9495L60.8573 3.92093Z" fill="#F8CA95"/>
<path d="M88.1136 3.92093C87.6781 3.51028 87.148 3.2167 86.5718 3.06698C85.9955 2.91725 85.3914 2.91616 84.8147 3.06379C83.9618 3.25345 83.1304 3.53108 82.3334 3.89236C81.8364 4.10781 81.3281 4.29541 80.8108 4.45427C80.5313 4.54968 80.2406 4.60731 79.9462 4.62569C79.0533 4.93045 78.6021 4.39712 78.5927 3.03522C78.659 3.03234 78.7225 3.00803 78.7741 2.96588C78.8257 2.92372 78.8626 2.86593 78.8795 2.80097C78.8963 2.736 78.8921 2.66729 78.8676 2.6049C78.843 2.54251 78.7994 2.48972 78.7431 2.45427C76.9104 1.44476 76.0363 4.10188 77.3803 5.3114C77.8286 5.62992 78.3433 5.83943 78.8845 5.92367C79.4257 6.00791 79.9787 5.96459 80.5007 5.79711C83.0665 5.19711 85.0684 3.05427 87.8692 4.27331C88.0666 4.35903 88.3016 4.12092 88.1136 3.9495L88.1136 3.92093Z" fill="#F8CA95"/>
<path d="M72.6529 2.86377C72.8385 3.10681 73.0722 3.30793 73.339 3.45426C73.5081 3.57806 73.6867 3.71139 73.8653 3.81615C73.5093 4.11377 73.1704 4.43175 72.8502 4.76852C72.6905 4.93995 72.8502 5.27329 73.0946 5.18757C73.4937 5.05229 73.873 4.8633 74.2224 4.62567C74.2224 4.9971 74.3258 5.38757 74.3728 5.73995C74.3843 5.80086 74.4164 5.8558 74.4636 5.89531C74.5108 5.93483 74.5701 5.95645 74.6313 5.95645C74.6925 5.95645 74.7518 5.93483 74.7989 5.89531C74.8461 5.8558 74.8782 5.80086 74.8897 5.73995C74.8897 5.36853 74.9837 4.96854 74.9931 4.58759C75.2275 4.79574 75.4943 4.96308 75.7826 5.08281C75.8517 5.1029 75.9255 5.09878 75.992 5.07113C76.0585 5.04348 76.1139 4.99392 76.1492 4.93044C76.1818 4.86834 76.1948 4.79754 76.1864 4.72769C76.178 4.65783 76.1486 4.59229 76.1022 4.53996C75.886 4.2733 75.6792 4.00663 75.4913 3.73044C75.7617 3.3379 75.968 2.90377 76.1022 2.44474C76.2432 2.02569 75.6698 1.84474 75.4443 2.15902C75.2187 2.47331 74.8803 2.83521 74.6078 3.18759L74.6078 3.25425C74.3563 3.04579 74.074 2.87867 73.7713 2.75901C73.5073 2.6005 73.2121 2.50296 72.9066 2.47331C72.8586 2.46582 72.8095 2.47245 72.765 2.49243C72.7206 2.51242 72.6828 2.54491 72.6561 2.58604C72.6294 2.62716 72.6148 2.67519 72.6143 2.72442C72.6137 2.77366 72.6271 2.82202 72.6529 2.86377Z" fill="#F8CA95"/>
<path d="M90.2516 3.92093C90.6871 3.51028 91.2171 3.2167 91.7934 3.06698C92.3696 2.91725 92.9737 2.91616 93.5505 3.06379C94.406 3.25485 95.2404 3.53243 96.0411 3.89236C96.5349 4.10779 97.0401 4.29539 97.5543 4.45427C97.8339 4.54968 98.1246 4.60731 98.419 4.62569C99.3589 4.93045 99.763 4.39712 99.7724 3.03522C99.7062 3.03234 99.6426 3.00803 99.591 2.96588C99.5394 2.92372 99.5025 2.86593 99.4857 2.80097C99.4689 2.736 99.4731 2.66729 99.4976 2.6049C99.5221 2.54251 99.5657 2.48972 99.622 2.45427C101.502 1.44475 102.329 4.10188 100.985 5.3114C100.537 5.62992 100.022 5.83943 99.4807 5.92367C98.9395 6.00791 98.3865 5.96459 97.8645 5.79711C95.2986 5.19711 93.2967 3.05427 90.4959 4.27332C90.2985 4.35903 90.0636 4.12092 90.2516 3.9495L90.2516 3.92093Z" fill="#F8CA95"/>
<path d="M117.508 3.92093C117.072 3.51028 116.542 3.2167 115.966 3.06698C115.39 2.91725 114.786 2.91616 114.209 3.06379C113.356 3.25345 112.525 3.53108 111.728 3.89236C111.231 4.10781 110.722 4.29541 110.205 4.45427C109.926 4.54968 109.635 4.60731 109.34 4.62569C108.448 4.93045 107.996 4.39712 107.987 3.03522C108.053 3.03234 108.117 3.00803 108.168 2.96588C108.22 2.92372 108.257 2.86593 108.274 2.80097C108.291 2.736 108.286 2.66729 108.262 2.6049C108.237 2.54251 108.194 2.48972 108.137 2.45427C106.305 1.44476 105.431 4.10188 106.775 5.3114C107.223 5.62992 107.738 5.83943 108.279 5.92367C108.82 6.00791 109.373 5.96459 109.895 5.79711C112.461 5.19711 114.463 3.05427 117.264 4.27331C117.461 4.35903 117.696 4.12092 117.508 3.9495L117.508 3.92093Z" fill="#F8CA95"/>
<path d="M102.047 2.86377C102.233 3.10681 102.467 3.30793 102.733 3.45426C102.902 3.57806 103.081 3.71139 103.26 3.81615C102.904 4.11377 102.565 4.43175 102.245 4.76852C102.085 4.93995 102.245 5.27329 102.489 5.18757C102.888 5.05229 103.267 4.8633 103.617 4.62567C103.617 4.9971 103.72 5.38757 103.767 5.73995C103.779 5.80086 103.811 5.8558 103.858 5.89531C103.905 5.93483 103.964 5.95645 104.026 5.95645C104.087 5.95645 104.146 5.93483 104.193 5.89531C104.24 5.8558 104.273 5.80086 104.284 5.73995C104.284 5.36853 104.378 4.96854 104.387 4.58759C104.622 4.79574 104.889 4.96308 105.177 5.08281C105.246 5.1029 105.32 5.09878 105.386 5.07113C105.453 5.04348 105.508 4.99392 105.543 4.93044C105.576 4.86834 105.589 4.79754 105.581 4.72769C105.572 4.65783 105.543 4.59229 105.496 4.53996C105.28 4.2733 105.074 4.00663 104.886 3.73044C105.156 3.3379 105.362 2.90377 105.496 2.44474C105.637 2.02569 105.064 1.84474 104.839 2.15902C104.613 2.47331 104.275 2.83521 104.002 3.18759L104.002 3.25425C103.751 3.04579 103.468 2.87867 103.166 2.75901C102.902 2.6005 102.606 2.50296 102.301 2.47331C102.253 2.46582 102.204 2.47245 102.159 2.49243C102.115 2.51242 102.077 2.54491 102.05 2.58604C102.024 2.62716 102.009 2.67519 102.009 2.72442C102.008 2.77366 102.021 2.82202 102.047 2.86377Z" fill="#F8CA95"/>
<path d="M119.646 3.92093C120.081 3.51028 120.611 3.2167 121.188 3.06698C121.764 2.91725 122.368 2.91616 122.945 3.06379C123.8 3.25485 124.635 3.53243 125.435 3.89236C125.929 4.10779 126.434 4.29539 126.949 4.45427C127.228 4.54968 127.519 4.60731 127.813 4.62569C128.753 4.93045 129.157 4.39712 129.167 3.03522C129.1 3.03234 129.037 3.00803 128.985 2.96588C128.934 2.92372 128.897 2.86593 128.88 2.80097C128.863 2.736 128.867 2.66729 128.892 2.6049C128.916 2.54251 128.96 2.48972 129.016 2.45427C130.896 1.44475 131.723 4.10188 130.379 5.3114C129.931 5.62992 129.416 5.83943 128.875 5.92367C128.334 6.00791 127.781 5.96459 127.259 5.79711C124.693 5.19711 122.691 3.05427 119.89 4.27332C119.693 4.35903 119.458 4.12092 119.646 3.9495L119.646 3.92093Z" fill="#F8CA95"/>
<path d="M146.902 3.92093C146.467 3.51028 145.937 3.2167 145.36 3.06698C144.784 2.91725 144.18 2.91616 143.603 3.06379C142.75 3.25345 141.919 3.53108 141.122 3.89236C140.625 4.10781 140.117 4.29541 139.599 4.45427C139.32 4.54968 139.029 4.60731 138.735 4.62569C137.842 4.93045 137.391 4.39712 137.381 3.03522C137.448 3.03234 137.511 3.00803 137.563 2.96588C137.614 2.92372 137.651 2.86593 137.668 2.80097C137.685 2.736 137.681 2.66729 137.656 2.6049C137.632 2.54251 137.588 2.48972 137.532 2.45427C135.699 1.44476 134.825 4.10188 136.169 5.3114C136.617 5.62992 137.132 5.83943 137.673 5.92367C138.214 6.00791 138.767 5.96459 139.289 5.79711C141.855 5.19711 143.857 3.05427 146.658 4.27331C146.855 4.35903 147.09 4.12092 146.902 3.9495L146.902 3.92093Z" fill="#F8CA95"/>
<path d="M131.441 2.86377C131.627 3.10681 131.861 3.30793 132.128 3.45426C132.297 3.57806 132.475 3.71139 132.654 3.81615C132.298 4.11377 131.959 4.43175 131.639 4.76852C131.479 4.93995 131.639 5.27329 131.883 5.18757C132.282 5.05229 132.662 4.8633 133.011 4.62567C133.011 4.9971 133.114 5.38757 133.161 5.73995C133.173 5.80086 133.205 5.8558 133.252 5.89531C133.299 5.93483 133.359 5.95645 133.42 5.95645C133.481 5.95645 133.54 5.93483 133.588 5.89531C133.635 5.8558 133.667 5.80086 133.678 5.73995C133.678 5.36853 133.772 4.96854 133.782 4.58759C134.016 4.79574 134.283 4.96308 134.571 5.08281C134.64 5.1029 134.714 5.09878 134.781 5.07113C134.847 5.04348 134.902 4.99392 134.938 4.93044C134.97 4.86834 134.983 4.79754 134.975 4.72769C134.967 4.65783 134.937 4.59229 134.891 4.53996C134.675 4.2733 134.468 4.00663 134.28 3.73044C134.55 3.3379 134.757 2.90377 134.891 2.44474C135.032 2.02569 134.458 1.84474 134.233 2.15902C134.007 2.47331 133.669 2.83521 133.396 3.18759L133.396 3.25425C133.145 3.04579 132.863 2.87867 132.56 2.75901C132.296 2.6005 132.001 2.50296 131.695 2.47331C131.647 2.46582 131.598 2.47245 131.554 2.49243C131.509 2.51242 131.471 2.54491 131.445 2.58604C131.418 2.62716 131.403 2.67519 131.403 2.72442C131.402 2.77366 131.416 2.82202 131.441 2.86377Z" fill="#F8CA95"/>
<path d="M149.04 3.92093C149.476 3.51028 150.006 3.2167 150.582 3.06698C151.158 2.91725 151.762 2.91616 152.339 3.06379C153.195 3.25485 154.029 3.53243 154.83 3.89236C155.323 4.10779 155.829 4.29539 156.343 4.45427C156.622 4.54968 156.913 4.60731 157.208 4.62569C158.147 4.93045 158.552 4.39712 158.561 3.03522C158.495 3.03234 158.431 3.00803 158.38 2.96588C158.328 2.92372 158.291 2.86593 158.274 2.80097C158.257 2.736 158.262 2.66729 158.286 2.6049C158.311 2.54251 158.354 2.48972 158.411 2.45427C160.29 1.44475 161.117 4.10188 159.773 5.3114C159.325 5.62992 158.81 5.83943 158.269 5.92367C157.728 6.00791 157.175 5.96459 156.653 5.79711C154.087 5.19711 152.085 3.05427 149.284 4.27332C149.087 4.35903 148.852 4.12092 149.04 3.9495L149.04 3.92093Z" fill="#F8CA95"/>
<path d="M176.296 3.92093C175.861 3.51028 175.331 3.2167 174.755 3.06698C174.178 2.91725 173.574 2.91616 172.998 3.06379C172.145 3.25345 171.313 3.53108 170.516 3.89236C170.019 4.10781 169.511 4.29541 168.994 4.45427C168.714 4.54968 168.423 4.60731 168.129 4.62569C167.236 4.93045 166.785 4.39712 166.776 3.03522C166.842 3.03234 166.905 3.00803 166.957 2.96588C167.009 2.92372 167.045 2.86593 167.062 2.80097C167.079 2.736 167.075 2.66729 167.05 2.6049C167.026 2.54251 166.982 2.48972 166.926 2.45427C165.093 1.44476 164.219 4.10188 165.563 5.3114C166.011 5.62992 166.526 5.83943 167.067 5.92367C167.609 6.00791 168.162 5.96459 168.684 5.79711C171.249 5.19711 173.251 3.05427 176.052 4.27331C176.249 4.35903 176.484 4.12092 176.296 3.9495L176.296 3.92093Z" fill="#F8CA95"/>
<path d="M160.836 2.86377C161.021 3.10681 161.255 3.30793 161.522 3.45426C161.691 3.57806 161.87 3.71139 162.048 3.81615C161.692 4.11377 161.353 4.43175 161.033 4.76852C160.873 4.93995 161.033 5.27329 161.277 5.18757C161.677 5.05229 162.056 4.8633 162.405 4.62567C162.405 4.9971 162.509 5.38757 162.556 5.73995C162.567 5.80086 162.599 5.8558 162.646 5.89531C162.694 5.93483 162.753 5.95645 162.814 5.95645C162.875 5.95645 162.935 5.93483 162.982 5.89531C163.029 5.8558 163.061 5.80086 163.073 5.73995C163.073 5.36853 163.167 4.96854 163.176 4.58759C163.41 4.79574 163.677 4.96308 163.965 5.08281C164.035 5.1029 164.108 5.09878 164.175 5.07113C164.241 5.04348 164.297 4.99392 164.332 4.93044C164.365 4.86834 164.378 4.79754 164.369 4.72769C164.361 4.65783 164.331 4.59229 164.285 4.53996C164.069 4.2733 163.862 4.00663 163.674 3.73044C163.945 3.3379 164.151 2.90377 164.285 2.44474C164.426 2.02569 163.853 1.84474 163.627 2.15902C163.402 2.47331 163.063 2.83521 162.791 3.18759L162.791 3.25425C162.539 3.04579 162.257 2.87867 161.954 2.75901C161.69 2.6005 161.395 2.50296 161.089 2.47331C161.041 2.46582 160.992 2.47245 160.948 2.49243C160.903 2.51242 160.866 2.54491 160.839 2.58604C160.812 2.62716 160.798 2.67519 160.797 2.72442C160.797 2.77366 160.81 2.82202 160.836 2.86377Z" fill="#F8CA95"/>
<path d="M178.434 3.92093C178.87 3.51028 179.4 3.2167 179.976 3.06698C180.552 2.91725 181.156 2.91616 181.733 3.06379C182.589 3.25485 183.423 3.53243 184.224 3.89236C184.718 4.10779 185.223 4.29539 185.737 4.45427C186.016 4.54968 186.307 4.60731 186.602 4.62569C187.541 4.93045 187.946 4.39712 187.955 3.03522C187.889 3.03234 187.825 3.00803 187.774 2.96588C187.722 2.92372 187.685 2.86593 187.668 2.80097C187.652 2.736 187.656 2.66729 187.68 2.6049C187.705 2.54251 187.748 2.48972 187.805 2.45427C189.684 1.44475 190.511 4.10188 189.167 5.3114C188.719 5.62992 188.204 5.83943 187.663 5.92367C187.122 6.00791 186.569 5.96459 186.047 5.79711C183.481 5.19711 181.479 3.05427 178.679 4.27332C178.481 4.35903 178.246 4.12092 178.434 3.9495L178.434 3.92093Z" fill="#F8CA95"/>
<path d="M205.691 3.92093C205.255 3.51028 204.725 3.2167 204.149 3.06698C203.572 2.91725 202.968 2.91616 202.392 3.06379C201.539 3.25345 200.707 3.53108 199.91 3.89236C199.413 4.10781 198.905 4.29541 198.388 4.45427C198.108 4.54968 197.817 4.60731 197.523 4.62569C196.63 4.93045 196.179 4.39712 196.17 3.03522C196.236 3.03234 196.299 3.00803 196.351 2.96588C196.403 2.92372 196.44 2.86593 196.456 2.80097C196.473 2.736 196.469 2.66729 196.444 2.6049C196.42 2.54251 196.376 2.48972 196.32 2.45427C194.487 1.44476 193.613 4.10188 194.957 5.3114C195.406 5.62992 195.92 5.83943 196.461 5.92367C197.003 6.00791 197.556 5.96459 198.078 5.79711C200.643 5.19711 202.645 3.05427 205.446 4.27331C205.644 4.35903 205.878 4.12092 205.691 3.9495L205.691 3.92093Z" fill="#F8CA95"/>
<path d="M190.23 2.86377C190.415 3.10681 190.649 3.30793 190.916 3.45426C191.085 3.57806 191.264 3.71139 191.442 3.81615C191.086 4.11377 190.747 4.43175 190.427 4.76852C190.267 4.93995 190.427 5.27329 190.671 5.18757C191.071 5.05229 191.45 4.8633 191.799 4.62567C191.799 4.9971 191.903 5.38757 191.95 5.73995C191.961 5.80086 191.993 5.8558 192.041 5.89531C192.088 5.93483 192.147 5.95645 192.208 5.95645C192.269 5.95645 192.329 5.93483 192.376 5.89531C192.423 5.8558 192.455 5.80086 192.467 5.73995C192.467 5.36853 192.561 4.96854 192.57 4.58759C192.804 4.79574 193.071 4.96308 193.36 5.08281C193.429 5.1029 193.502 5.09878 193.569 5.07113C193.635 5.04348 193.691 4.99392 193.726 4.93044C193.759 4.86834 193.772 4.79754 193.763 4.72769C193.755 4.65783 193.726 4.59229 193.679 4.53996C193.463 4.2733 193.256 4.00663 193.068 3.73044C193.339 3.3379 193.545 2.90377 193.679 2.44474C193.82 2.02569 193.247 1.84474 193.021 2.15902C192.796 2.47331 192.457 2.83521 192.185 3.18759L192.185 3.25425C191.933 3.04579 191.651 2.87867 191.348 2.75901C191.084 2.6005 190.789 2.50296 190.484 2.47331C190.435 2.46582 190.386 2.47245 190.342 2.49243C190.298 2.51242 190.26 2.54491 190.233 2.58604C190.206 2.62716 190.192 2.67519 190.191 2.72442C190.191 2.77366 190.204 2.82202 190.23 2.86377Z" fill="#F8CA95"/>
<path d="M207.828 3.92093C208.264 3.51028 208.794 3.2167 209.37 3.06698C209.947 2.91725 210.551 2.91616 211.127 3.06379C211.983 3.25485 212.817 3.53243 213.618 3.89236C214.112 4.10779 214.617 4.29539 215.131 4.45427C215.411 4.54968 215.701 4.60731 215.996 4.62569C216.936 4.93045 217.34 4.39712 217.349 3.03522C217.283 3.03234 217.22 3.00803 217.168 2.96588C217.116 2.92372 217.079 2.86593 217.063 2.80097C217.046 2.736 217.05 2.66729 217.074 2.6049C217.099 2.54251 217.143 2.48972 217.199 2.45427C219.079 1.44475 219.906 4.10188 218.562 5.3114C218.113 5.62992 217.599 5.83943 217.058 5.92367C216.516 6.00791 215.963 5.96459 215.441 5.79711C212.876 5.19711 210.874 3.05427 208.073 4.27332C207.875 4.35903 207.64 4.12092 207.828 3.9495L207.828 3.92093Z" fill="#F8CA95"/>
<path d="M235.085 3.92093C234.649 3.51028 234.119 3.2167 233.543 3.06698C232.967 2.91725 232.363 2.91616 231.786 3.06379C230.933 3.25345 230.102 3.53108 229.305 3.89236C228.808 4.10781 228.299 4.29541 227.782 4.45427C227.502 4.54968 227.212 4.60731 226.917 4.62569C226.024 4.93045 225.573 4.39712 225.564 3.03522C225.63 3.03234 225.694 3.00803 225.745 2.96588C225.797 2.92372 225.834 2.86593 225.851 2.80097C225.867 2.736 225.863 2.66729 225.839 2.6049C225.814 2.54251 225.771 2.48972 225.714 2.45427C223.882 1.44476 223.007 4.10188 224.351 5.3114C224.8 5.62992 225.315 5.83943 225.856 5.92367C226.397 6.00791 226.95 5.96459 227.472 5.79711C230.038 5.19711 232.04 3.05427 234.84 4.27331C235.038 4.35903 235.273 4.12092 235.085 3.9495L235.085 3.92093Z" fill="#F8CA95"/>
<path d="M219.624 2.86377C219.81 3.10681 220.043 3.30793 220.31 3.45426C220.479 3.57806 220.658 3.71139 220.836 3.81615C220.481 4.11377 220.142 4.43175 219.821 4.76852C219.662 4.93995 219.821 5.27329 220.066 5.18757C220.465 5.05229 220.844 4.8633 221.194 4.62567C221.194 4.9971 221.297 5.38757 221.344 5.73995C221.356 5.80086 221.388 5.8558 221.435 5.89531C221.482 5.93483 221.541 5.95645 221.602 5.95645C221.664 5.95645 221.723 5.93483 221.77 5.89531C221.817 5.8558 221.849 5.80086 221.861 5.73995C221.861 5.36853 221.955 4.96854 221.964 4.58759C222.199 4.79574 222.465 4.96308 222.754 5.08281C222.823 5.1029 222.897 5.09878 222.963 5.07113C223.03 5.04348 223.085 4.99392 223.12 4.93044C223.153 4.86834 223.166 4.79754 223.158 4.72769C223.149 4.65783 223.12 4.59229 223.073 4.53996C222.857 4.2733 222.65 4.00663 222.462 3.73044C222.733 3.3379 222.939 2.90377 223.073 2.44474C223.214 2.02569 222.641 1.84474 222.415 2.15902C222.19 2.47331 221.852 2.83521 221.579 3.18759L221.579 3.25425C221.327 3.04579 221.045 2.87867 220.742 2.75901C220.479 2.6005 220.183 2.50296 219.878 2.47331C219.83 2.46582 219.781 2.47245 219.736 2.49243C219.692 2.51242 219.654 2.54491 219.627 2.58604C219.601 2.62716 219.586 2.67519 219.585 2.72442C219.585 2.77366 219.598 2.82202 219.624 2.86377Z" fill="#F8CA95"/>
<path d="M237.223 3.92093C237.658 3.51028 238.188 3.2167 238.765 3.06698C239.341 2.91725 239.945 2.91616 240.522 3.06379C241.377 3.25485 242.212 3.53243 243.012 3.89236C243.506 4.10779 244.011 4.29539 244.526 4.45427C244.805 4.54968 245.096 4.60731 245.39 4.62569C246.33 4.93045 246.734 4.39712 246.744 3.03522C246.677 3.03234 246.614 3.00803 246.562 2.96588C246.511 2.92372 246.474 2.86593 246.457 2.80097C246.44 2.736 246.444 2.66729 246.469 2.6049C246.493 2.54251 246.537 2.48972 246.593 2.45427C248.473 1.44475 249.3 4.10188 247.956 5.3114C247.508 5.62992 246.993 5.83943 246.452 5.92367C245.911 6.00791 245.358 5.96459 244.836 5.79711C242.27 5.19711 240.268 3.05427 237.467 4.27332C237.27 4.35903 237.035 4.12092 237.223 3.9495L237.223 3.92093Z" fill="#F8CA95"/>
<path d="M264.479 3.92093C264.044 3.51028 263.513 3.2167 262.937 3.06698C262.361 2.91725 261.757 2.91616 261.18 3.06379C260.327 3.25345 259.496 3.53108 258.699 3.89236C258.202 4.10781 257.694 4.29541 257.176 4.45427C256.897 4.54968 256.606 4.60731 256.312 4.62569C255.419 4.93045 254.968 4.39712 254.958 3.03522C255.024 3.03234 255.088 3.00803 255.14 2.96588C255.191 2.92372 255.228 2.86593 255.245 2.80097C255.262 2.736 255.258 2.66729 255.233 2.6049C255.209 2.54251 255.165 2.48972 255.109 2.45427C253.276 1.44476 252.402 4.10188 253.746 5.3114C254.194 5.62992 254.709 5.83943 255.25 5.92367C255.791 6.00791 256.344 5.96459 256.866 5.79711C259.432 5.19711 261.434 3.05427 264.235 4.27331C264.432 4.35903 264.667 4.12092 264.479 3.9495L264.479 3.92093Z" fill="#F8CA95"/>
<path d="M249.018 2.86377C249.204 3.10681 249.438 3.30793 249.704 3.45426C249.874 3.57806 250.052 3.71139 250.231 3.81615C249.875 4.11377 249.536 4.43175 249.216 4.76852C249.056 4.93995 249.216 5.27329 249.46 5.18757C249.859 5.05229 250.239 4.8633 250.588 4.62567C250.588 4.9971 250.691 5.38757 250.738 5.73995C250.75 5.80086 250.782 5.8558 250.829 5.89531C250.876 5.93483 250.936 5.95645 250.997 5.95645C251.058 5.95645 251.117 5.93483 251.164 5.89531C251.212 5.8558 251.244 5.80086 251.255 5.73995C251.255 5.36853 251.349 4.96854 251.359 4.58759C251.593 4.79574 251.86 4.96308 252.148 5.08281C252.217 5.1029 252.291 5.09878 252.357 5.07113C252.424 5.04348 252.479 4.99392 252.515 4.93044C252.547 4.86834 252.56 4.79754 252.552 4.72769C252.544 4.65783 252.514 4.59229 252.468 4.53996C252.251 4.2733 252.045 4.00663 251.857 3.73044C252.127 3.3379 252.333 2.90377 252.468 2.44474C252.609 2.02569 252.035 1.84474 251.81 2.15902C251.584 2.47331 251.246 2.83521 250.973 3.18759L250.973 3.25425C250.722 3.04579 250.439 2.87867 250.137 2.75901C249.873 2.6005 249.578 2.50296 249.272 2.47331C249.224 2.46582 249.175 2.47245 249.131 2.49243C249.086 2.51242 249.048 2.54491 249.022 2.58604C248.995 2.62716 248.98 2.67519 248.98 2.72442C248.979 2.77366 248.993 2.82202 249.018 2.86377Z" fill="#F8CA95"/>
<path d="M266.617 3.92093C267.053 3.51028 267.583 3.2167 268.159 3.06698C268.735 2.91725 269.339 2.91616 269.916 3.06379C270.771 3.25485 271.606 3.53243 272.407 3.89236C272.9 4.10779 273.406 4.29539 273.92 4.45427C274.199 4.54968 274.49 4.60731 274.784 4.62569C275.724 4.93045 276.128 4.39712 276.138 3.03522C276.072 3.03234 276.008 3.00803 275.957 2.96588C275.905 2.92372 275.868 2.86593 275.851 2.80097C275.834 2.736 275.839 2.66729 275.863 2.6049C275.888 2.54251 275.931 2.48972 275.988 2.45427C277.867 1.44475 278.694 4.10188 277.35 5.3114C276.902 5.62992 276.387 5.83943 275.846 5.92367C275.305 6.00791 274.752 5.96459 274.23 5.79711C271.664 5.19711 269.662 3.05427 266.861 4.27332C266.664 4.35903 266.429 4.12092 266.617 3.9495L266.617 3.92093Z" fill="#F8CA95"/>
<path d="M293.873 3.92093C293.438 3.51028 292.908 3.2167 292.332 3.06698C291.755 2.91725 291.151 2.91616 290.574 3.06379C289.722 3.25345 288.89 3.53108 288.093 3.89236C287.596 4.10781 287.088 4.29541 286.571 4.45427C286.291 4.54968 286 4.60731 285.706 4.62569C284.813 4.93045 284.362 4.39712 284.353 3.03522C284.419 3.03234 284.482 3.00803 284.534 2.96588C284.585 2.92372 284.622 2.86593 284.639 2.80097C284.656 2.736 284.652 2.66729 284.627 2.6049C284.603 2.54251 284.559 2.48972 284.503 2.45427C282.67 1.44476 281.796 4.10188 283.14 5.3114C283.588 5.62992 284.103 5.83943 284.644 5.92367C285.185 6.00791 285.738 5.96459 286.26 5.79711C288.826 5.19711 290.828 3.05427 293.629 4.27331C293.826 4.35903 294.061 4.12092 293.873 3.9495L293.873 3.92093Z" fill="#F8CA95"/>
<path d="M278.413 2.86377C278.598 3.10681 278.832 3.30793 279.099 3.45426C279.268 3.57806 279.446 3.71139 279.625 3.81615C279.269 4.11377 278.93 4.43175 278.61 4.76852C278.45 4.93995 278.61 5.27329 278.854 5.18757C279.253 5.05229 279.633 4.8633 279.982 4.62567C279.982 4.9971 280.086 5.38757 280.133 5.73995C280.144 5.80086 280.176 5.8558 280.223 5.89531C280.271 5.93483 280.33 5.95645 280.391 5.95645C280.452 5.95645 280.512 5.93483 280.559 5.89531C280.606 5.8558 280.638 5.80086 280.65 5.73995C280.65 5.36853 280.743 4.96854 280.753 4.58759C280.987 4.79574 281.254 4.96308 281.542 5.08281C281.611 5.1029 281.685 5.09878 281.752 5.07113C281.818 5.04348 281.874 4.99392 281.909 4.93044C281.942 4.86834 281.955 4.79754 281.946 4.72769C281.938 4.65783 281.908 4.59229 281.862 4.53996C281.646 4.2733 281.439 4.00663 281.251 3.73044C281.521 3.3379 281.728 2.90377 281.862 2.44474C282.003 2.02569 281.43 1.84474 281.204 2.15902C280.978 2.47331 280.64 2.83521 280.368 3.18759L280.368 3.25425C280.116 3.04579 279.834 2.87867 279.531 2.75901C279.267 2.6005 278.972 2.50296 278.666 2.47331C278.618 2.46582 278.569 2.47245 278.525 2.49243C278.48 2.51242 278.443 2.54491 278.416 2.58604C278.389 2.62716 278.375 2.67519 278.374 2.72442C278.373 2.77366 278.387 2.82202 278.413 2.86377Z" fill="#F8CA95"/>
<path d="M296.011 3.92093C296.447 3.51028 296.977 3.2167 297.553 3.06698C298.129 2.91725 298.733 2.91616 299.31 3.06379C300.165 3.25485 301 3.53243 301.801 3.89236C302.294 4.10779 302.8 4.29539 303.314 4.45427C303.593 4.54968 303.884 4.60731 304.179 4.62569C305.118 4.93045 305.523 4.39712 305.532 3.03522C305.466 3.03234 305.402 3.00803 305.351 2.96588C305.299 2.92372 305.262 2.86593 305.245 2.80097C305.228 2.736 305.233 2.66729 305.257 2.6049C305.282 2.54251 305.325 2.48972 305.382 2.45427C307.261 1.44475 308.088 4.10188 306.744 5.3114C306.296 5.62992 305.781 5.83943 305.24 5.92367C304.699 6.00791 304.146 5.96459 303.624 5.79711C301.058 5.19711 299.056 3.05427 296.255 4.27332C296.058 4.35903 295.823 4.12092 296.011 3.9495L296.011 3.92093Z" fill="#F8CA95"/>
<path d="M323.267 3.92093C322.832 3.51028 322.302 3.2167 321.726 3.06698C321.149 2.91725 320.545 2.91616 319.968 3.06379C319.116 3.25345 318.284 3.53108 317.487 3.89236C316.99 4.10781 316.482 4.29541 315.965 4.45427C315.685 4.54968 315.394 4.60731 315.1 4.62569C314.207 4.93045 313.756 4.39712 313.747 3.03522C313.813 3.03234 313.876 3.00803 313.928 2.96588C313.98 2.92372 314.016 2.86593 314.033 2.80097C314.05 2.736 314.046 2.66729 314.021 2.6049C313.997 2.54251 313.953 2.48972 313.897 2.45427C312.064 1.44476 311.19 4.10188 312.534 5.3114C312.982 5.62992 313.497 5.83943 314.038 5.92367C314.579 6.00791 315.133 5.96459 315.654 5.79711C318.22 5.19711 320.222 3.05427 323.023 4.27331C323.22 4.35903 323.455 4.12092 323.267 3.9495L323.267 3.92093Z" fill="#F8CA95"/>
<path d="M307.807 2.86377C307.992 3.10681 308.226 3.30793 308.493 3.45426C308.662 3.57806 308.841 3.71139 309.019 3.81615C308.663 4.11377 308.324 4.43175 308.004 4.76852C307.844 4.93995 308.004 5.27329 308.248 5.18757C308.647 5.05229 309.027 4.8633 309.376 4.62567C309.376 4.9971 309.48 5.38757 309.527 5.73995C309.538 5.80086 309.57 5.8558 309.617 5.89531C309.665 5.93483 309.724 5.95645 309.785 5.95645C309.846 5.95645 309.906 5.93483 309.953 5.89531C310 5.8558 310.032 5.80086 310.044 5.73995C310.044 5.36853 310.138 4.96854 310.147 4.58759C310.381 4.79574 310.648 4.96308 310.936 5.08281C311.006 5.1029 311.079 5.09878 311.146 5.07113C311.212 5.04348 311.268 4.99392 311.303 4.93044C311.336 4.86834 311.349 4.79754 311.34 4.72769C311.332 4.65783 311.302 4.59229 311.256 4.53996C311.04 4.2733 310.833 4.00663 310.645 3.73044C310.916 3.3379 311.122 2.90377 311.256 2.44474C311.397 2.02569 310.824 1.84474 310.598 2.15902C310.373 2.47331 310.034 2.83521 309.762 3.18759L309.762 3.25425C309.51 3.04579 309.228 2.87867 308.925 2.75901C308.661 2.6005 308.366 2.50296 308.06 2.47331C308.012 2.46582 307.963 2.47245 307.919 2.49243C307.874 2.51242 307.837 2.54491 307.81 2.58604C307.783 2.62716 307.769 2.67519 307.768 2.72442C307.768 2.77366 307.781 2.82202 307.807 2.86377Z" fill="#F8CA95"/>
<path d="M325.405 3.92093C325.841 3.51028 326.371 3.2167 326.947 3.06698C327.523 2.91725 328.128 2.91616 328.704 3.06379C329.56 3.25485 330.394 3.53243 331.195 3.89236C331.689 4.10779 332.194 4.29539 332.708 4.45427C332.988 4.54968 333.278 4.60731 333.573 4.62569C334.513 4.93045 334.917 4.39712 334.926 3.03522C334.86 3.03234 334.796 3.00803 334.745 2.96588C334.693 2.92372 334.656 2.86593 334.64 2.80097C334.623 2.736 334.627 2.66729 334.651 2.6049C334.676 2.54251 334.72 2.48972 334.776 2.45427C336.656 1.44475 337.483 4.10188 336.139 5.3114C335.69 5.62992 335.176 5.83943 334.634 5.92367C334.093 6.00791 333.54 5.96459 333.018 5.79711C330.452 5.19711 328.451 3.05427 325.65 4.27332C325.452 4.35903 325.217 4.12092 325.405 3.9495L325.405 3.92093Z" fill="#F8CA95"/>
<path d="M352.662 3.92093C352.226 3.51028 351.696 3.2167 351.12 3.06698C350.544 2.91725 349.94 2.91616 349.363 3.06379C348.51 3.25345 347.679 3.53108 346.882 3.89236C346.385 4.10781 345.876 4.29541 345.359 4.45427C345.079 4.54968 344.789 4.60731 344.494 4.62569C343.601 4.93045 343.15 4.39712 343.141 3.03522C343.207 3.03234 343.271 3.00803 343.322 2.96588C343.374 2.92372 343.411 2.86593 343.428 2.80097C343.444 2.736 343.44 2.66729 343.416 2.6049C343.391 2.54251 343.348 2.48972 343.291 2.45427C341.458 1.44476 340.584 4.10188 341.928 5.3114C342.377 5.62992 342.891 5.83943 343.433 5.92367C343.974 6.00791 344.527 5.96459 345.049 5.79711C347.615 5.19711 349.617 3.05427 352.417 4.27331C352.615 4.35903 352.85 4.12092 352.662 3.9495L352.662 3.92093Z" fill="#F8CA95"/>
<path d="M337.201 2.86377C337.387 3.10681 337.62 3.30793 337.887 3.45426C338.056 3.57806 338.235 3.71139 338.413 3.81615C338.057 4.11377 337.719 4.43175 337.398 4.76852C337.239 4.93995 337.398 5.27329 337.643 5.18757C338.042 5.05229 338.421 4.8633 338.771 4.62567C338.771 4.9971 338.874 5.38757 338.921 5.73995C338.932 5.80086 338.965 5.8558 339.012 5.89531C339.059 5.93483 339.118 5.95645 339.179 5.95645C339.241 5.95645 339.3 5.93483 339.347 5.89531C339.394 5.8558 339.426 5.80086 339.438 5.73995C339.438 5.36853 339.532 4.96854 339.541 4.58759C339.776 4.79574 340.042 4.96308 340.331 5.08281C340.4 5.1029 340.474 5.09878 340.54 5.07113C340.607 5.04348 340.662 4.99392 340.697 4.93044C340.73 4.86834 340.743 4.79754 340.735 4.72769C340.726 4.65783 340.697 4.59229 340.65 4.53996C340.434 4.2733 340.227 4.00663 340.039 3.73044C340.31 3.3379 340.516 2.90377 340.65 2.44474C340.791 2.02569 340.218 1.84474 339.992 2.15902C339.767 2.47331 339.428 2.83521 339.156 3.18759L339.156 3.25425C338.904 3.04579 338.622 2.87867 338.319 2.75901C338.055 2.6005 337.76 2.50296 337.455 2.47331C337.407 2.46582 337.358 2.47245 337.313 2.49243C337.269 2.51242 337.231 2.54491 337.204 2.58604C337.177 2.62716 337.163 2.67519 337.162 2.72442C337.162 2.77366 337.175 2.82202 337.201 2.86377Z" fill="#F8CA95"/>
<path d="M354.8 3.9209C355.235 3.51025 355.765 3.21667 356.341 3.06695C356.918 2.91722 357.522 2.91613 358.099 3.06376C358.954 3.25482 359.788 3.5324 360.589 3.89233C361.083 4.10776 361.588 4.29536 362.102 4.45424C362.382 4.54965 362.673 4.60728 362.967 4.62566C363.907 4.93042 364.311 4.39709 364.321 3.03519C364.254 3.03231 364.191 3.008 364.139 2.96585C364.088 2.92369 364.051 2.8659 364.034 2.80094C364.017 2.73597 364.021 2.66726 364.046 2.60487C364.07 2.54248 364.114 2.48969 364.17 2.45424C366.05 1.44472 366.877 4.10185 365.533 5.31137C365.085 5.62989 364.57 5.8394 364.029 5.92364C363.488 6.00787 362.935 5.96456 362.413 5.79708C359.847 5.19708 357.845 3.05424 355.044 4.27328C354.847 4.359 354.612 4.12089 354.8 3.94947L354.8 3.9209Z" fill="#F8CA95"/>
<path d="M382.056 3.9209C381.62 3.51025 381.09 3.21667 380.514 3.06695C379.938 2.91722 379.334 2.91613 378.757 3.06376C377.904 3.25342 377.073 3.53105 376.276 3.89233C375.779 4.10778 375.271 4.29537 374.753 4.45424C374.474 4.54965 374.183 4.60728 373.889 4.62566C372.996 4.93042 372.545 4.39709 372.535 3.03519C372.601 3.03231 372.665 3.008 372.717 2.96585C372.768 2.92369 372.805 2.8659 372.822 2.80094C372.839 2.73597 372.834 2.66726 372.81 2.60487C372.785 2.54248 372.742 2.48969 372.686 2.45424C370.853 1.44472 369.979 4.10185 371.323 5.31137C371.771 5.62989 372.286 5.8394 372.827 5.92364C373.368 6.00788 373.921 5.96456 374.443 5.79708C377.009 5.19708 379.011 3.05424 381.812 4.27328C382.009 4.359 382.244 4.12089 382.056 3.94947L382.056 3.9209Z" fill="#F8CA95"/>
<path d="M366.595 2.86374C366.781 3.10678 367.015 3.3079 367.281 3.45423C367.451 3.57803 367.629 3.71136 367.808 3.81612C367.452 4.11374 367.113 4.43172 366.793 4.76849C366.633 4.93992 366.793 5.27326 367.037 5.18754C367.436 5.05226 367.815 4.86327 368.165 4.62564C368.165 4.99707 368.268 5.38754 368.315 5.73992C368.327 5.80083 368.359 5.85577 368.406 5.89528C368.453 5.9348 368.512 5.95642 368.574 5.95642C368.635 5.95642 368.694 5.9348 368.741 5.89528C368.789 5.85577 368.821 5.80083 368.832 5.73992C368.832 5.36849 368.926 4.96851 368.936 4.58755C369.17 4.79571 369.437 4.96304 369.725 5.08278C369.794 5.10286 369.868 5.09875 369.934 5.0711C370.001 5.04345 370.056 4.99389 370.092 4.93041C370.124 4.86831 370.137 4.79751 370.129 4.72766C370.12 4.6578 370.091 4.59226 370.045 4.53993C369.828 4.27327 369.622 4.0066 369.434 3.73041C369.704 3.33787 369.91 2.90374 370.045 2.44471C370.186 2.02566 369.612 1.84471 369.387 2.15899C369.161 2.47328 368.823 2.83518 368.55 3.18756L368.55 3.25422C368.299 3.04576 368.016 2.87864 367.714 2.75898C367.45 2.60047 367.154 2.50293 366.849 2.47328C366.801 2.46579 366.752 2.47242 366.707 2.4924C366.663 2.51239 366.625 2.54488 366.598 2.586C366.572 2.62713 366.557 2.67516 366.557 2.72439C366.556 2.77363 366.569 2.82199 366.595 2.86374Z" fill="#F8CA95"/>
<path d="M384.194 3.9209C384.629 3.51025 385.16 3.21667 385.736 3.06695C386.312 2.91722 386.916 2.91613 387.493 3.06376C388.348 3.25482 389.183 3.5324 389.984 3.89233C390.477 4.10776 390.982 4.29536 391.497 4.45424C391.776 4.54965 392.067 4.60728 392.361 4.62566C393.301 4.93042 393.705 4.39709 393.715 3.03519C393.649 3.03231 393.585 3.008 393.533 2.96585C393.482 2.92369 393.445 2.8659 393.428 2.80094C393.411 2.73597 393.415 2.66726 393.44 2.60487C393.465 2.54248 393.508 2.48969 393.564 2.45424C395.444 1.44472 396.271 4.10185 394.927 5.31137C394.479 5.62989 393.964 5.8394 393.423 5.92364C392.882 6.00787 392.329 5.96456 391.807 5.79708C389.241 5.19708 387.239 3.05424 384.438 4.27328C384.241 4.359 384.006 4.12089 384.194 3.94947L384.194 3.9209Z" fill="#F8CA95"/>
<path d="M411.45 3.9209C411.015 3.51025 410.485 3.21667 409.908 3.06695C409.332 2.91722 408.728 2.91613 408.151 3.06376C407.299 3.25342 406.467 3.53105 405.67 3.89233C405.173 4.10778 404.665 4.29537 404.148 4.45424C403.868 4.54965 403.577 4.60728 403.283 4.62566C402.39 4.93042 401.939 4.39709 401.929 3.03519C401.996 3.03231 402.059 3.008 402.111 2.96585C402.162 2.92369 402.199 2.8659 402.216 2.80094C402.233 2.73597 402.229 2.66726 402.204 2.60487C402.18 2.54248 402.136 2.48969 402.08 2.45424C400.247 1.44472 399.373 4.10185 400.717 5.31137C401.165 5.62989 401.68 5.8394 402.221 5.92364C402.762 6.00788 403.315 5.96456 403.837 5.79708C406.403 5.19708 408.405 3.05424 411.206 4.27328C411.403 4.359 411.638 4.12089 411.45 3.94947L411.45 3.9209Z" fill="#F8CA95"/>
<path d="M395.99 2.86374C396.175 3.10678 396.409 3.3079 396.676 3.45423C396.845 3.57803 397.023 3.71136 397.202 3.81612C396.846 4.11374 396.507 4.43172 396.187 4.76849C396.027 4.93992 396.187 5.27326 396.431 5.18754C396.83 5.05226 397.21 4.86327 397.559 4.62564C397.559 4.99707 397.662 5.38754 397.709 5.73992C397.721 5.80083 397.753 5.85577 397.8 5.89528C397.847 5.9348 397.907 5.95642 397.968 5.95642C398.029 5.95642 398.088 5.9348 398.136 5.89528C398.183 5.85577 398.215 5.80083 398.226 5.73992C398.226 5.36849 398.32 4.96851 398.33 4.58755C398.564 4.79571 398.831 4.96304 399.119 5.08278C399.188 5.10286 399.262 5.09875 399.329 5.0711C399.395 5.04345 399.451 4.99389 399.486 4.93041C399.518 4.86831 399.532 4.79751 399.523 4.72766C399.515 4.6578 399.485 4.59226 399.439 4.53993C399.223 4.27327 399.016 4.0066 398.828 3.73041C399.098 3.33787 399.305 2.90374 399.439 2.44471C399.58 2.02566 399.007 1.84471 398.781 2.15899C398.555 2.47328 398.217 2.83518 397.944 3.18756L397.944 3.25422C397.693 3.04576 397.411 2.87864 397.108 2.75898C396.844 2.60047 396.549 2.50293 396.243 2.47328C396.195 2.46579 396.146 2.47242 396.102 2.4924C396.057 2.51239 396.019 2.54488 395.993 2.586C395.966 2.62713 395.952 2.67516 395.951 2.72439C395.95 2.77363 395.964 2.82199 395.99 2.86374Z" fill="#F8CA95"/>
<path d="M413.588 3.9209C414.023 3.51025 414.554 3.21667 415.13 3.06695C415.706 2.91722 416.31 2.91613 416.887 3.06376C417.742 3.25482 418.577 3.5324 419.378 3.89233C419.871 4.10776 420.377 4.29536 420.891 4.45424C421.17 4.54965 421.461 4.60728 421.755 4.62566C422.695 4.93042 423.099 4.39709 423.109 3.03519C423.043 3.03231 422.979 3.008 422.927 2.96585C422.876 2.92369 422.839 2.8659 422.822 2.80094C422.805 2.73597 422.809 2.66726 422.834 2.60487C422.859 2.54248 422.902 2.48969 422.958 2.45424C424.838 1.44472 425.665 4.10185 424.321 5.31137C423.873 5.62989 423.358 5.8394 422.817 5.92364C422.276 6.00787 421.723 5.96456 421.201 5.79708C418.635 5.19708 416.633 3.05424 413.832 4.27328C413.635 4.359 413.4 4.12089 413.588 3.94947L413.588 3.9209Z" fill="#F8CA95"/>
<path d="M440.844 3.9209C440.409 3.51025 439.879 3.21667 439.302 3.06695C438.726 2.91722 438.122 2.91613 437.545 3.06376C436.693 3.25342 435.861 3.53105 435.064 3.89233C434.567 4.10778 434.059 4.29537 433.542 4.45424C433.262 4.54965 432.971 4.60728 432.677 4.62566C431.784 4.93042 431.333 4.39709 431.323 3.03519C431.39 3.03231 431.453 3.008 431.505 2.96585C431.556 2.92369 431.593 2.8659 431.61 2.80094C431.627 2.73597 431.623 2.66726 431.598 2.60487C431.574 2.54248 431.53 2.48969 431.474 2.45424C429.641 1.44472 428.767 4.10185 430.111 5.31137C430.559 5.62989 431.074 5.8394 431.615 5.92364C432.156 6.00788 432.709 5.96456 433.231 5.79708C435.797 5.19708 437.799 3.05424 440.6 4.27328C440.797 4.359 441.032 4.12089 440.844 3.94947L440.844 3.9209Z" fill="#F8CA95"/>
<path d="M425.384 2.86374C425.569 3.10678 425.803 3.3079 426.07 3.45423C426.239 3.57803 426.417 3.71136 426.596 3.81612C426.24 4.11374 425.901 4.43172 425.581 4.76849C425.421 4.93992 425.581 5.27326 425.825 5.18754C426.224 5.05226 426.604 4.86327 426.953 4.62564C426.953 4.99707 427.057 5.38754 427.104 5.73992C427.115 5.80083 427.147 5.85577 427.194 5.89528C427.241 5.9348 427.301 5.95642 427.362 5.95642C427.423 5.95642 427.482 5.9348 427.53 5.89528C427.577 5.85577 427.609 5.80083 427.62 5.73992C427.62 5.36849 427.714 4.96851 427.724 4.58755C427.958 4.79571 428.225 4.96304 428.513 5.08278C428.582 5.10286 428.656 5.09875 428.723 5.0711C428.789 5.04345 428.845 4.99389 428.88 4.93041C428.913 4.86831 428.926 4.79751 428.917 4.72766C428.909 4.6578 428.879 4.59226 428.833 4.53993C428.617 4.27327 428.41 4.0066 428.222 3.73041C428.492 3.33787 428.699 2.90374 428.833 2.44471C428.974 2.02566 428.401 1.84471 428.175 2.15899C427.949 2.47328 427.611 2.83518 427.338 3.18756L427.338 3.25422C427.087 3.04576 426.805 2.87864 426.502 2.75898C426.238 2.60047 425.943 2.50293 425.637 2.47328C425.589 2.46579 425.54 2.47242 425.496 2.4924C425.451 2.51239 425.414 2.54488 425.387 2.586C425.36 2.62713 425.346 2.67516 425.345 2.72439C425.344 2.77363 425.358 2.82199 425.384 2.86374Z" fill="#F8CA95"/>
<path d="M442.982 3.9209C443.418 3.51025 443.948 3.21667 444.524 3.06695C445.1 2.91722 445.704 2.91613 446.281 3.06376C447.137 3.25482 447.971 3.5324 448.772 3.89233C449.266 4.10776 449.771 4.29536 450.285 4.45424C450.565 4.54965 450.855 4.60728 451.15 4.62566C452.09 4.93042 452.494 4.39709 452.503 3.03519C452.437 3.03231 452.373 3.008 452.322 2.96585C452.27 2.92369 452.233 2.8659 452.216 2.80094C452.2 2.73597 452.204 2.66726 452.228 2.60487C452.253 2.54248 452.296 2.48969 452.353 2.45424C454.232 1.44472 455.06 4.10185 453.716 5.31137C453.267 5.62989 452.753 5.8394 452.211 5.92364C451.67 6.00787 451.117 5.96456 450.595 5.79708C448.029 5.19708 446.027 3.05424 443.227 4.27328C443.029 4.359 442.794 4.12089 442.982 3.94947L442.982 3.9209Z" fill="#F8CA95"/>
<path d="M470.239 3.9209C469.803 3.51025 469.273 3.21667 468.697 3.06695C468.121 2.91722 467.516 2.91613 466.94 3.06376C466.087 3.25342 465.255 3.53105 464.458 3.89233C463.961 4.10778 463.453 4.29537 462.936 4.45424C462.656 4.54965 462.366 4.60728 462.071 4.62566C461.178 4.93042 460.727 4.39709 460.718 3.03519C460.784 3.03231 460.848 3.008 460.899 2.96585C460.951 2.92369 460.988 2.8659 461.004 2.80094C461.021 2.73597 461.017 2.66726 460.993 2.60487C460.968 2.54248 460.924 2.48969 460.868 2.45424C459.035 1.44472 458.161 4.10185 459.505 5.31137C459.954 5.62989 460.468 5.8394 461.009 5.92364C461.551 6.00788 462.104 5.96456 462.626 5.79708C465.192 5.19708 467.193 3.05424 469.994 4.27328C470.192 4.359 470.427 4.12089 470.239 3.94947L470.239 3.9209Z" fill="#F8CA95"/>
<path d="M454.778 2.86374C454.964 3.10678 455.197 3.3079 455.464 3.45423C455.633 3.57803 455.812 3.71136 455.99 3.81612C455.634 4.11374 455.295 4.43172 454.975 4.76849C454.815 4.93992 454.975 5.27326 455.22 5.18754C455.619 5.05226 455.998 4.86327 456.347 4.62564C456.347 4.99707 456.451 5.38754 456.498 5.73992C456.509 5.80083 456.541 5.85577 456.589 5.89528C456.636 5.9348 456.695 5.95642 456.756 5.95642C456.817 5.95642 456.877 5.9348 456.924 5.89528C456.971 5.85577 457.003 5.80083 457.015 5.73992C457.015 5.36849 457.109 4.96851 457.118 4.58755C457.352 4.79571 457.619 4.96304 457.908 5.08278C457.977 5.10286 458.05 5.09875 458.117 5.0711C458.184 5.04345 458.239 4.99389 458.274 4.93041C458.307 4.86831 458.32 4.79751 458.311 4.72766C458.303 4.6578 458.274 4.59226 458.227 4.53993C458.011 4.27327 457.804 4.0066 457.616 3.73041C457.887 3.33787 458.093 2.90374 458.227 2.44471C458.368 2.02566 457.795 1.84471 457.569 2.15899C457.344 2.47328 457.005 2.83518 456.733 3.18756L456.733 3.25422C456.481 3.04576 456.199 2.87864 455.896 2.75898C455.632 2.60047 455.337 2.50293 455.032 2.47328C454.984 2.46579 454.934 2.47242 454.89 2.4924C454.846 2.51239 454.808 2.54488 454.781 2.586C454.754 2.62713 454.74 2.67516 454.739 2.72439C454.739 2.77363 454.752 2.82199 454.778 2.86374Z" fill="#F8CA95"/>
</svg>
